<?xml version="1.0" encoding="utf-8"?>
<!-- Generator: Adobe Illustrator 22.1.0, SVG Export Plug-In . SVG Version: 6.00 Build 0)  -->
<svg version="1.1" id="Layer_1" xmlns="http://www.w3.org/2000/svg" xmlns:xlink="http://www.w3.org/1999/xlink" x="0px" y="0px"
	 viewBox="0 0 700.4 328" style="enable-background:new 0 0 700.4 328;" xml:space="preserve">
<style type="text/css">
	.st0{clip-path:url(#SVGID_2_);}
	.st1{fill-opacity:0;}
	.st2{fill:none;stroke:#000000;stroke-linejoin:round;stroke-miterlimit:10;stroke-dasharray:1,3;}
	.st3{fill:#CFE2F3;}
	.st4{fill:none;stroke:#000000;stroke-linejoin:round;stroke-miterlimit:10;}
	.st5{stroke:#000000;stroke-miterlimit:10;}
</style>
<g>
	<defs>
		<rect id="SVGID_1_" x="-74.6" y="-79" width="800" height="600"/>
	</defs>
	<clipPath id="SVGID_2_">
		<use xlink:href="#SVGID_1_"  style="overflow:visible;"/>
	</clipPath>
	<g class="st0">
		<path class="st1" d="M-74.6-79h800v600h-800V-79z"/>
		<path class="st1" d="M428.3,198.1h-18v-92.2"/>
		<path class="st2" d="M428.3,198.1h-18v-92.2"/>
		<path class="st1" d="M540.3,198.1h-18v-92.2"/>
		<path class="st2" d="M540.3,198.1h-18v-92.2"/>
		<path class="st1" d="M188.3,198.1h-18v-92.2"/>
		<path class="st2" d="M188.3,198.1h-18v-92.2"/>
		<path class="st3" d="M183.7,241.6h86.4v62.3h-86.4V241.6z"/>
		<path class="st4" d="M183.7,241.6h86.4v62.3h-86.4V241.6z"/>
		<path d="M210.3,279.7l5.1-13.4h1.9l5.5,13.4h-2l-1.5-4h-5.6l-1.5,4H210.3z M214.2,274.2h4.5l-1.4-3.7c-0.4-1.1-0.7-2-0.9-2.8
			c-0.2,0.9-0.4,1.7-0.7,2.5L214.2,274.2z M224,283.4V270h1.5v1.2c0.4-0.5,0.8-0.9,1.2-1.1c0.4-0.2,1-0.4,1.6-0.4
			c0.8,0,1.5,0.2,2.2,0.6c0.6,0.4,1.1,1,1.4,1.8c0.3,0.8,0.5,1.6,0.5,2.5c0,1-0.2,1.9-0.5,2.7c-0.4,0.8-0.9,1.4-1.5,1.8
			c-0.7,0.4-1.4,0.6-2.1,0.6c-0.5,0-1-0.1-1.5-0.3s-0.8-0.5-1.1-0.9v4.7H224z M225.5,274.9c0,1.2,0.2,2.2,0.8,2.8
			c0.5,0.6,1.1,0.9,1.8,0.9c0.7,0,1.4-0.3,1.9-0.9c0.5-0.6,0.8-1.6,0.8-2.9c0-1.2-0.3-2.2-0.8-2.8c-0.5-0.6-1.1-0.9-1.8-0.9
			c-0.7,0-1.3,0.3-1.9,1C225.8,272.7,225.5,273.6,225.5,274.9z M234.4,283.4V270h1.5v1.2c0.4-0.5,0.8-0.9,1.2-1.1
			c0.4-0.2,1-0.4,1.6-0.4c0.8,0,1.5,0.2,2.2,0.6c0.6,0.4,1.1,1,1.4,1.8c0.3,0.8,0.5,1.6,0.5,2.5c0,1-0.2,1.9-0.5,2.7
			s-0.9,1.4-1.5,1.8c-0.7,0.4-1.4,0.6-2.1,0.6c-0.5,0-1-0.1-1.5-0.3s-0.8-0.5-1.1-0.9v4.7H234.4z M235.9,274.9
			c0,1.2,0.2,2.2,0.8,2.8c0.5,0.6,1.1,0.9,1.8,0.9c0.7,0,1.4-0.3,1.9-0.9c0.5-0.6,0.8-1.6,0.8-2.9c0-1.2-0.3-2.2-0.8-2.8
			c-0.5-0.6-1.1-0.9-1.8-0.9c-0.7,0-1.3,0.3-1.9,1C236.1,272.7,235.9,273.6,235.9,274.9z"/>
		<path class="st3" d="M183.7,178.3h86.4V218h-86.4V178.3z"/>
		<path class="st4" d="M183.7,178.3h86.4V218h-86.4V178.3z"/>
		<path d="M204.5,205.1v-13.4h5c0.9,0,1.6,0,2,0.1c0.6,0.1,1.2,0.3,1.6,0.6c0.4,0.3,0.8,0.7,1.1,1.3c0.3,0.6,0.4,1.2,0.4,1.8
			c0,1.1-0.4,2.1-1.1,2.9c-0.7,0.8-2,1.2-3.9,1.2h-3.4v5.4H204.5z M206.3,198.1h3.5c1.1,0,2-0.2,2.4-0.6c0.5-0.4,0.7-1,0.7-1.8
			c0-0.6-0.1-1-0.4-1.4c-0.3-0.4-0.7-0.7-1.1-0.8c-0.3-0.1-0.8-0.1-1.6-0.1h-3.4V198.1z M216.8,205.1v-9.7h1.5v1.5
			c0.4-0.7,0.7-1.1,1-1.4c0.3-0.2,0.7-0.3,1.1-0.3c0.6,0,1.1,0.2,1.7,0.5l-0.6,1.5c-0.4-0.2-0.8-0.4-1.2-0.4c-0.4,0-0.7,0.1-1,0.3
			s-0.5,0.5-0.6,0.9c-0.2,0.6-0.3,1.2-0.3,1.9v5.1H216.8z M222.4,200.2c0-1.8,0.5-3.1,1.5-4c0.8-0.7,1.8-1.1,3-1.1
			c1.3,0,2.4,0.4,3.3,1.3c0.8,0.9,1.3,2.1,1.3,3.6c0,1.2-0.2,2.2-0.6,2.9c-0.4,0.7-0.9,1.3-1.6,1.7c-0.7,0.4-1.5,0.6-2.3,0.6
			c-1.4,0-2.4-0.4-3.3-1.3C222.8,203.1,222.4,201.8,222.4,200.2z M224.1,200.2c0,1.2,0.3,2.2,0.8,2.8c0.5,0.6,1.2,0.9,2,0.9
			c0.8,0,1.5-0.3,2-0.9c0.5-0.6,0.8-1.6,0.8-2.8c0-1.2-0.3-2.1-0.8-2.7c-0.5-0.6-1.2-0.9-2-0.9c-0.8,0-1.5,0.3-2,0.9
			C224.3,198,224.1,199,224.1,200.2z M232.3,205.1l3.5-5l-3.3-4.6h2l1.5,2.3c0.3,0.4,0.5,0.8,0.7,1.1c0.3-0.4,0.5-0.8,0.7-1.1
			l1.6-2.3h2l-3.3,4.5l3.6,5.1h-2l-2-3l-0.5-0.8l-2.5,3.8H232.3z M242.6,208.8l-0.2-1.5c0.4,0.1,0.7,0.1,0.9,0.1
			c0.4,0,0.7-0.1,0.9-0.2c0.2-0.1,0.4-0.3,0.5-0.5c0.1-0.2,0.3-0.6,0.5-1.2c0-0.1,0.1-0.2,0.1-0.4l-3.7-9.7h1.8l2,5.6
			c0.3,0.7,0.5,1.5,0.7,2.2c0.2-0.8,0.4-1.5,0.7-2.2l2.1-5.6h1.6l-3.7,9.8c-0.4,1.1-0.7,1.8-0.9,2.2c-0.3,0.5-0.6,0.9-1,1.2
			s-0.8,0.4-1.3,0.4C243.3,209,243,208.9,242.6,208.8z"/>
		<path class="st3" d="M335.4,20.3h136.9v62.3H335.4V20.3z"/>
		<path class="st4" d="M335.4,20.3h136.9v62.3H335.4V20.3z"/>
		<path d="M350.8,47.4V34h2.7l3.2,9.5c0.3,0.9,0.5,1.5,0.6,2c0.2-0.5,0.4-1.2,0.7-2.1l3.2-9.3h2.4v13.4h-1.7V36.2l-3.9,11.2h-1.6
			L352.5,36v11.4H350.8z M372.5,46.2c-0.6,0.5-1.2,0.9-1.8,1.1c-0.6,0.2-1.2,0.3-1.8,0.3c-1.1,0-1.9-0.3-2.5-0.8
			c-0.6-0.5-0.9-1.2-0.9-2c0-0.5,0.1-0.9,0.3-1.3c0.2-0.4,0.5-0.7,0.8-0.9c0.4-0.2,0.8-0.4,1.2-0.5c0.3-0.1,0.8-0.2,1.5-0.2
			c1.3-0.2,2.3-0.3,2.9-0.6c0-0.2,0-0.4,0-0.4c0-0.7-0.2-1.1-0.5-1.4c-0.4-0.4-1-0.5-1.9-0.5c-0.8,0-1.3,0.1-1.7,0.4
			c-0.4,0.3-0.6,0.7-0.8,1.4l-1.6-0.2c0.1-0.7,0.4-1.2,0.7-1.6c0.3-0.4,0.8-0.8,1.5-1c0.6-0.2,1.4-0.3,2.2-0.3c0.8,0,1.5,0.1,2,0.3
			c0.5,0.2,0.9,0.4,1.1,0.7c0.2,0.3,0.4,0.7,0.5,1.1c0.1,0.3,0.1,0.8,0.1,1.5v2.2c0,1.5,0,2.5,0.1,2.9c0.1,0.4,0.2,0.8,0.4,1.2h-1.7
			C372.6,47,372.5,46.6,372.5,46.2z M372.3,42.5c-0.6,0.2-1.5,0.5-2.7,0.6c-0.7,0.1-1.2,0.2-1.4,0.3s-0.5,0.3-0.7,0.5
			c-0.1,0.2-0.2,0.5-0.2,0.8c0,0.4,0.2,0.8,0.5,1.1c0.3,0.3,0.8,0.4,1.5,0.4c0.6,0,1.2-0.1,1.7-0.4c0.5-0.3,0.9-0.7,1.1-1.1
			c0.2-0.4,0.3-0.9,0.3-1.6V42.5z M376.5,47.4v-9.7h1.5v1.4c0.7-1.1,1.7-1.6,3.1-1.6c0.6,0,1.1,0.1,1.6,0.3c0.5,0.2,0.9,0.5,1.1,0.8
			c0.2,0.3,0.4,0.7,0.5,1.2c0.1,0.3,0.1,0.8,0.1,1.6v6h-1.6v-5.9c0-0.7-0.1-1.2-0.2-1.5c-0.1-0.3-0.3-0.6-0.7-0.8
			c-0.3-0.2-0.7-0.3-1.1-0.3c-0.7,0-1.3,0.2-1.8,0.7c-0.5,0.4-0.8,1.3-0.8,2.5v5.3H376.5z M393.2,46.2c-0.6,0.5-1.2,0.9-1.8,1.1
			c-0.6,0.2-1.2,0.3-1.8,0.3c-1.1,0-1.9-0.3-2.5-0.8c-0.6-0.5-0.9-1.2-0.9-2c0-0.5,0.1-0.9,0.3-1.3c0.2-0.4,0.5-0.7,0.8-0.9
			c0.4-0.2,0.8-0.4,1.2-0.5c0.3-0.1,0.8-0.2,1.5-0.2c1.3-0.2,2.3-0.3,2.9-0.6c0-0.2,0-0.4,0-0.4c0-0.7-0.2-1.1-0.5-1.4
			c-0.4-0.4-1-0.5-1.9-0.5c-0.8,0-1.3,0.1-1.7,0.4c-0.4,0.3-0.6,0.7-0.8,1.4l-1.6-0.2c0.1-0.7,0.4-1.2,0.7-1.6
			c0.3-0.4,0.8-0.8,1.5-1c0.6-0.2,1.4-0.3,2.2-0.3c0.8,0,1.5,0.1,2,0.3c0.5,0.2,0.9,0.4,1.1,0.7c0.2,0.3,0.4,0.7,0.5,1.1
			c0.1,0.3,0.1,0.8,0.1,1.5v2.2c0,1.5,0,2.5,0.1,2.9c0.1,0.4,0.2,0.8,0.4,1.2h-1.7C393.4,47,393.3,46.6,393.2,46.2z M393.1,42.5
			c-0.6,0.2-1.5,0.5-2.7,0.6c-0.7,0.1-1.2,0.2-1.4,0.3s-0.5,0.3-0.7,0.5c-0.1,0.2-0.2,0.5-0.2,0.8c0,0.4,0.2,0.8,0.5,1.1
			c0.3,0.3,0.8,0.4,1.5,0.4c0.6,0,1.2-0.1,1.7-0.4c0.5-0.3,0.9-0.7,1.1-1.1c0.2-0.4,0.3-0.9,0.3-1.6V42.5z M397,48.2l1.6,0.2
			c0.1,0.5,0.3,0.9,0.6,1.1c0.4,0.3,1,0.5,1.7,0.5c0.8,0,1.3-0.2,1.8-0.5c0.4-0.3,0.7-0.7,0.8-1.3c0.1-0.3,0.1-1,0.1-2.1
			c-0.7,0.8-1.6,1.3-2.7,1.3c-1.3,0-2.4-0.5-3.1-1.4c-0.7-1-1.1-2.1-1.1-3.5c0-0.9,0.2-1.8,0.5-2.6c0.3-0.8,0.8-1.4,1.5-1.8
			c0.6-0.4,1.4-0.6,2.2-0.6c1.1,0,2.1,0.5,2.8,1.4v-1.2h1.5v8.4c0,1.5-0.2,2.6-0.5,3.2c-0.3,0.6-0.8,1.1-1.5,1.5
			c-0.7,0.4-1.5,0.5-2.5,0.5c-1.1,0-2.1-0.3-2.8-0.8C397.3,50,396.9,49.2,397,48.2z M398.3,42.4c0,1.3,0.2,2.2,0.8,2.8
			c0.5,0.6,1.1,0.9,1.9,0.9c0.8,0,1.4-0.3,1.9-0.9c0.5-0.6,0.8-1.5,0.8-2.7c0-1.2-0.3-2.1-0.8-2.7c-0.5-0.6-1.2-0.9-1.9-0.9
			c-0.7,0-1.3,0.3-1.9,0.9C398.6,40.3,398.3,41.2,398.3,42.4z M414.3,44.3l1.7,0.2c-0.3,1-0.8,1.8-1.5,2.3c-0.7,0.5-1.6,0.8-2.8,0.8
			c-1.4,0-2.5-0.4-3.4-1.3c-0.8-0.9-1.2-2.1-1.2-3.7c0-1.6,0.4-2.9,1.2-3.8c0.8-0.9,1.9-1.3,3.3-1.3c1.3,0,2.3,0.4,3.2,1.3
			c0.8,0.9,1.2,2.1,1.2,3.7c0,0.1,0,0.2,0,0.4h-7.2c0.1,1.1,0.4,1.9,0.9,2.5c0.5,0.6,1.2,0.8,2,0.8c0.6,0,1.1-0.2,1.5-0.5
			C413.7,45.5,414,44.9,414.3,44.3z M408.9,41.6h5.4c-0.1-0.8-0.3-1.4-0.6-1.8c-0.5-0.6-1.2-1-2-1c-0.8,0-1.4,0.3-1.9,0.8
			C409.2,40.1,408.9,40.8,408.9,41.6z M418,47.4v-9.7h1.5v1.4c0.3-0.5,0.7-0.9,1.2-1.1c0.5-0.3,1.1-0.4,1.7-0.4
			c0.7,0,1.3,0.2,1.8,0.5c0.5,0.3,0.8,0.7,1,1.2c0.8-1.1,1.8-1.7,3-1.7c1,0,1.7,0.3,2.2,0.8c0.5,0.5,0.8,1.3,0.8,2.5v6.6h-1.6v-6.1
			c0-0.7-0.1-1.1-0.2-1.4c-0.1-0.3-0.3-0.5-0.6-0.7c-0.3-0.2-0.6-0.3-1-0.3c-0.7,0-1.2,0.2-1.7,0.7c-0.4,0.4-0.7,1.2-0.7,2.2v5.6
			h-1.6v-6.3c0-0.7-0.1-1.3-0.4-1.6c-0.3-0.4-0.7-0.5-1.3-0.5c-0.5,0-0.9,0.1-1.3,0.4c-0.4,0.2-0.7,0.6-0.9,1.1
			c-0.2,0.5-0.3,1.1-0.2,2v5H418z M440.2,44.3l1.7,0.2c-0.3,1-0.8,1.8-1.5,2.3c-0.7,0.5-1.6,0.8-2.8,0.8c-1.4,0-2.5-0.4-3.4-1.3
			c-0.8-0.9-1.2-2.1-1.2-3.7c0-1.6,0.4-2.9,1.2-3.8c0.8-0.9,1.9-1.3,3.3-1.3c1.3,0,2.3,0.4,3.2,1.3c0.8,0.9,1.2,2.1,1.2,3.7
			c0,0.1,0,0.2,0,0.4h-7.2c0.1,1.1,0.4,1.9,0.9,2.5c0.5,0.6,1.2,0.8,2,0.8c0.6,0,1.1-0.2,1.5-0.5C439.6,45.5,439.9,44.9,440.2,44.3z
			 M434.8,41.6h5.4c-0.1-0.8-0.3-1.4-0.6-1.8c-0.5-0.6-1.2-1-2-1c-0.8,0-1.4,0.3-1.9,0.8C435.1,40.1,434.9,40.8,434.8,41.6z
			 M443.9,47.4v-9.7h1.5v1.4c0.7-1.1,1.7-1.6,3.1-1.6c0.6,0,1.1,0.1,1.6,0.3c0.5,0.2,0.9,0.5,1.1,0.8c0.2,0.3,0.4,0.7,0.5,1.2
			c0.1,0.3,0.1,0.8,0.1,1.6v6h-1.6v-5.9c0-0.7-0.1-1.2-0.2-1.5c-0.1-0.3-0.3-0.6-0.7-0.8c-0.3-0.2-0.7-0.3-1.1-0.3
			c-0.7,0-1.3,0.2-1.8,0.7c-0.5,0.4-0.8,1.3-0.8,2.5v5.3H443.9z M457.9,45.9l0.2,1.5c-0.5,0.1-0.9,0.1-1.2,0.1
			c-0.6,0-1.1-0.1-1.4-0.3c-0.3-0.2-0.6-0.4-0.7-0.7c-0.1-0.3-0.2-1-0.2-1.9V39h-1.2v-1.3h1.2v-2.4l1.6-1v3.4h1.7V39h-1.7v5.7
			c0,0.5,0,0.8,0.1,0.9c0.1,0.1,0.2,0.2,0.3,0.3c0.1,0.1,0.3,0.1,0.6,0.1C457.4,46,457.6,45.9,457.9,45.9z"/>
		<path d="M358.8,64.7l1.8,0.5c-0.4,1.4-1,2.6-2,3.3c-1,0.8-2.1,1.1-3.5,1.1c-1.4,0-2.6-0.3-3.5-0.9c-0.9-0.6-1.6-1.4-2.1-2.5
			c-0.5-1.1-0.7-2.3-0.7-3.6c0-1.4,0.3-2.6,0.8-3.6c0.5-1,1.3-1.8,2.3-2.4c1-0.5,2.1-0.8,3.2-0.8c1.3,0,2.5,0.3,3.4,1
			c0.9,0.7,1.6,1.6,1.9,2.9l-1.7,0.4c-0.3-1-0.8-1.7-1.4-2.1c-0.6-0.4-1.3-0.7-2.2-0.7c-1,0-1.9,0.2-2.6,0.7s-1.2,1.2-1.5,2
			c-0.3,0.8-0.4,1.7-0.4,2.6c0,1.1,0.2,2.1,0.5,3c0.3,0.8,0.8,1.5,1.5,1.9c0.7,0.4,1.5,0.6,2.3,0.6c1,0,1.8-0.3,2.5-0.9
			S358.6,65.8,358.8,64.7z M361.9,64.5c0-1.8,0.5-3.1,1.5-4c0.8-0.7,1.8-1.1,3-1.1c1.3,0,2.4,0.4,3.3,1.3c0.8,0.9,1.3,2.1,1.3,3.6
			c0,1.2-0.2,2.2-0.6,2.9c-0.4,0.7-0.9,1.3-1.6,1.7c-0.7,0.4-1.5,0.6-2.3,0.6c-1.4,0-2.4-0.4-3.3-1.3
			C362.3,67.4,361.9,66.2,361.9,64.5z M363.6,64.5c0,1.2,0.3,2.2,0.8,2.8c0.5,0.6,1.2,0.9,2,0.9c0.8,0,1.5-0.3,2-0.9
			c0.5-0.6,0.8-1.6,0.8-2.8c0-1.2-0.3-2.1-0.8-2.7c-0.5-0.6-1.2-0.9-2-0.9c-0.8,0-1.5,0.3-2,0.9C363.9,62.4,363.6,63.3,363.6,64.5z
			 M372.9,69.4v-9.7h1.5v1.4c0.3-0.5,0.7-0.9,1.2-1.1c0.5-0.3,1.1-0.4,1.7-0.4c0.7,0,1.3,0.2,1.8,0.5c0.5,0.3,0.8,0.7,1,1.2
			c0.8-1.1,1.8-1.7,3-1.7c1,0,1.7,0.3,2.2,0.8c0.5,0.5,0.8,1.3,0.8,2.5v6.6h-1.6v-6.1c0-0.7-0.1-1.1-0.2-1.4
			c-0.1-0.3-0.3-0.5-0.6-0.7c-0.3-0.2-0.6-0.3-1-0.3c-0.7,0-1.2,0.2-1.7,0.7c-0.4,0.4-0.7,1.2-0.7,2.2v5.6h-1.6v-6.3
			c0-0.7-0.1-1.3-0.4-1.6c-0.3-0.4-0.7-0.5-1.3-0.5c-0.5,0-0.9,0.1-1.3,0.4c-0.4,0.2-0.7,0.6-0.9,1.1c-0.2,0.5-0.2,1.1-0.2,2v5
			H372.9z M388.4,73.1V59.7h1.5v1.2c0.4-0.5,0.8-0.9,1.2-1.1c0.4-0.2,1-0.4,1.6-0.4c0.8,0,1.5,0.2,2.2,0.6c0.6,0.4,1.1,1,1.4,1.8
			c0.3,0.8,0.5,1.6,0.5,2.5c0,1-0.2,1.9-0.5,2.7c-0.4,0.8-0.9,1.4-1.5,1.8c-0.7,0.4-1.4,0.6-2.1,0.6c-0.5,0-1-0.1-1.5-0.3
			s-0.8-0.5-1.1-0.9v4.7H388.4z M389.9,64.6c0,1.2,0.2,2.2,0.8,2.8c0.5,0.6,1.1,0.9,1.8,0.9c0.7,0,1.4-0.3,1.9-0.9
			c0.5-0.6,0.8-1.6,0.8-2.9c0-1.2-0.3-2.2-0.8-2.8c-0.5-0.6-1.1-0.9-1.8-0.9c-0.7,0-1.3,0.3-1.9,1C390.2,62.4,389.9,63.3,389.9,64.6
			z M398.2,64.5c0-1.8,0.5-3.1,1.5-4c0.8-0.7,1.8-1.1,3-1.1c1.3,0,2.4,0.4,3.3,1.3c0.8,0.9,1.3,2.1,1.3,3.6c0,1.2-0.2,2.2-0.6,2.9
			c-0.4,0.7-0.9,1.3-1.6,1.7c-0.7,0.4-1.5,0.6-2.3,0.6c-1.4,0-2.4-0.4-3.3-1.3C398.6,67.4,398.2,66.2,398.2,64.5z M399.9,64.5
			c0,1.2,0.3,2.2,0.8,2.8c0.5,0.6,1.2,0.9,2,0.9c0.8,0,1.5-0.3,2-0.9c0.5-0.6,0.8-1.6,0.8-2.8c0-1.2-0.3-2.1-0.8-2.7
			c-0.5-0.6-1.2-0.9-2-0.9c-0.8,0-1.5,0.3-2,0.9C400.2,62.4,399.9,63.3,399.9,64.5z M409.2,69.4v-9.7h1.5v1.4
			c0.7-1.1,1.7-1.6,3.1-1.6c0.6,0,1.1,0.1,1.6,0.3c0.5,0.2,0.9,0.5,1.1,0.8c0.3,0.3,0.4,0.7,0.5,1.2c0.1,0.3,0.1,0.8,0.1,1.6v6h-1.6
			v-5.9c0-0.7-0.1-1.2-0.2-1.5c-0.1-0.3-0.3-0.6-0.7-0.8c-0.3-0.2-0.7-0.3-1.1-0.3c-0.7,0-1.3,0.2-1.8,0.7c-0.5,0.4-0.7,1.3-0.8,2.5
			v5.3H409.2z M426.2,66.3l1.7,0.2c-0.3,1-0.8,1.8-1.5,2.3c-0.7,0.5-1.6,0.8-2.8,0.8c-1.4,0-2.5-0.4-3.4-1.3
			c-0.8-0.9-1.2-2.1-1.2-3.7c0-1.6,0.4-2.9,1.2-3.8c0.8-0.9,1.9-1.3,3.3-1.3c1.3,0,2.3,0.4,3.2,1.3c0.8,0.9,1.2,2.1,1.2,3.7
			c0,0.1,0,0.2,0,0.4h-7.2c0.1,1.1,0.4,1.9,0.9,2.5c0.5,0.6,1.2,0.8,2,0.8c0.6,0,1.1-0.2,1.5-0.5C425.6,67.5,425.9,66.9,426.2,66.3z
			 M420.8,63.6h5.4c-0.1-0.8-0.3-1.4-0.6-1.8c-0.5-0.6-1.2-1-2-1c-0.7,0-1.4,0.3-1.9,0.8C421.1,62.1,420.9,62.8,420.8,63.6z
			 M429.9,69.4v-9.7h1.5v1.4c0.7-1.1,1.7-1.6,3.1-1.6c0.6,0,1.1,0.1,1.6,0.3c0.5,0.2,0.9,0.5,1.1,0.8c0.3,0.3,0.4,0.7,0.5,1.2
			c0.1,0.3,0.1,0.8,0.1,1.6v6h-1.6v-5.9c0-0.7-0.1-1.2-0.2-1.5c-0.1-0.3-0.3-0.6-0.7-0.8c-0.3-0.2-0.7-0.3-1.1-0.3
			c-0.7,0-1.3,0.2-1.8,0.7c-0.5,0.4-0.8,1.3-0.8,2.5v5.3H429.9z M443.9,67.9l0.2,1.5c-0.5,0.1-0.9,0.1-1.2,0.1
			c-0.6,0-1.1-0.1-1.4-0.3c-0.3-0.2-0.6-0.4-0.7-0.7c-0.1-0.3-0.2-1-0.2-1.9V61h-1.2v-1.3h1.2v-2.4l1.6-1v3.4h1.7V61h-1.7v5.7
			c0,0.5,0,0.8,0.1,0.9c0.1,0.1,0.2,0.2,0.3,0.3c0.1,0.1,0.3,0.1,0.6,0.1C443.4,68,443.6,67.9,443.9,67.9z M451.2,69.4V56h1.8v13.4
			H451.2z M456.4,69.4V56h1.8v13.4H456.4z"/>
		<path class="st3" d="M183.4,20.3h136.9v62.3H183.4V20.3z"/>
		<path class="st4" d="M183.4,20.3h136.9v62.3H183.4V20.3z"/>
		<path d="M198.8,47.4V34h2.7l3.2,9.5c0.3,0.9,0.5,1.5,0.6,2c0.2-0.5,0.4-1.2,0.7-2.1l3.2-9.3h2.4v13.4h-1.7V36.2l-3.9,11.2h-1.6
			L200.5,36v11.4H198.8z M220.5,46.2c-0.6,0.5-1.2,0.9-1.8,1.1c-0.6,0.2-1.2,0.3-1.8,0.3c-1.1,0-1.9-0.3-2.5-0.8
			c-0.6-0.5-0.9-1.2-0.9-2c0-0.5,0.1-0.9,0.3-1.3c0.2-0.4,0.5-0.7,0.8-0.9c0.4-0.2,0.8-0.4,1.2-0.5c0.3-0.1,0.8-0.2,1.5-0.2
			c1.3-0.2,2.3-0.3,2.9-0.6c0-0.2,0-0.4,0-0.4c0-0.7-0.2-1.1-0.5-1.4c-0.4-0.4-1-0.5-1.9-0.5c-0.8,0-1.3,0.1-1.7,0.4
			c-0.4,0.3-0.6,0.7-0.8,1.4l-1.6-0.2c0.1-0.7,0.4-1.2,0.7-1.6c0.3-0.4,0.8-0.8,1.5-1c0.6-0.2,1.4-0.3,2.2-0.3c0.8,0,1.5,0.1,2,0.3
			c0.5,0.2,0.9,0.4,1.1,0.7c0.2,0.3,0.4,0.7,0.5,1.1c0.1,0.3,0.1,0.8,0.1,1.5v2.2c0,1.5,0,2.5,0.1,2.9c0.1,0.4,0.2,0.8,0.4,1.2h-1.7
			C220.6,47,220.5,46.6,220.5,46.2z M220.3,42.5c-0.6,0.2-1.5,0.5-2.7,0.6c-0.7,0.1-1.2,0.2-1.4,0.3s-0.5,0.3-0.7,0.5
			c-0.1,0.2-0.2,0.5-0.2,0.8c0,0.4,0.2,0.8,0.5,1.1c0.3,0.3,0.8,0.4,1.5,0.4c0.6,0,1.2-0.1,1.7-0.4c0.5-0.3,0.9-0.7,1.1-1.1
			c0.2-0.4,0.3-0.9,0.3-1.6V42.5z M224.5,47.4v-9.7h1.5v1.4c0.7-1.1,1.7-1.6,3.1-1.6c0.6,0,1.1,0.1,1.6,0.3c0.5,0.2,0.9,0.5,1.1,0.8
			c0.2,0.3,0.4,0.7,0.5,1.2c0.1,0.3,0.1,0.8,0.1,1.6v6h-1.6v-5.9c0-0.7-0.1-1.2-0.2-1.5c-0.1-0.3-0.3-0.6-0.7-0.8
			c-0.3-0.2-0.7-0.3-1.1-0.3c-0.7,0-1.3,0.2-1.8,0.7c-0.5,0.4-0.8,1.3-0.8,2.5v5.3H224.5z M241.2,46.2c-0.6,0.5-1.2,0.9-1.8,1.1
			c-0.6,0.2-1.2,0.3-1.8,0.3c-1.1,0-1.9-0.3-2.5-0.8c-0.6-0.5-0.9-1.2-0.9-2c0-0.5,0.1-0.9,0.3-1.3c0.2-0.4,0.5-0.7,0.8-0.9
			c0.4-0.2,0.8-0.4,1.2-0.5c0.3-0.1,0.8-0.2,1.5-0.2c1.3-0.2,2.3-0.3,2.9-0.6c0-0.2,0-0.4,0-0.4c0-0.7-0.2-1.1-0.5-1.4
			c-0.4-0.4-1-0.5-1.9-0.5c-0.8,0-1.3,0.1-1.7,0.4c-0.4,0.3-0.6,0.7-0.8,1.4l-1.6-0.2c0.1-0.7,0.4-1.2,0.7-1.6
			c0.3-0.4,0.8-0.8,1.5-1c0.6-0.2,1.4-0.3,2.2-0.3c0.8,0,1.5,0.1,2,0.3c0.5,0.2,0.9,0.4,1.1,0.7c0.2,0.3,0.4,0.7,0.5,1.1
			c0.1,0.3,0.1,0.8,0.1,1.5v2.2c0,1.5,0,2.5,0.1,2.9c0.1,0.4,0.2,0.8,0.4,1.2h-1.7C241.4,47,241.3,46.6,241.2,46.2z M241.1,42.5
			c-0.6,0.2-1.5,0.5-2.7,0.6c-0.7,0.1-1.2,0.2-1.4,0.3s-0.5,0.3-0.7,0.5c-0.1,0.2-0.2,0.5-0.2,0.8c0,0.4,0.2,0.8,0.5,1.1
			c0.3,0.3,0.8,0.4,1.5,0.4c0.6,0,1.2-0.1,1.7-0.4c0.5-0.3,0.9-0.7,1.1-1.1c0.2-0.4,0.3-0.9,0.3-1.6V42.5z M245,48.2l1.6,0.2
			c0.1,0.5,0.3,0.9,0.6,1.1c0.4,0.3,1,0.5,1.7,0.5c0.8,0,1.3-0.2,1.8-0.5c0.4-0.3,0.7-0.7,0.8-1.3c0.1-0.3,0.1-1,0.1-2.1
			c-0.7,0.8-1.6,1.3-2.7,1.3c-1.3,0-2.4-0.5-3.1-1.4c-0.7-1-1.1-2.1-1.1-3.5c0-0.9,0.2-1.8,0.5-2.6c0.3-0.8,0.8-1.4,1.5-1.8
			c0.6-0.4,1.4-0.6,2.2-0.6c1.1,0,2.1,0.5,2.8,1.4v-1.2h1.5v8.4c0,1.5-0.2,2.6-0.5,3.2c-0.3,0.6-0.8,1.1-1.5,1.5
			c-0.7,0.4-1.5,0.5-2.5,0.5c-1.1,0-2.1-0.3-2.8-0.8C245.3,50,244.9,49.2,245,48.2z M246.3,42.4c0,1.3,0.2,2.2,0.8,2.8
			c0.5,0.6,1.1,0.9,1.9,0.9c0.8,0,1.4-0.3,1.9-0.9c0.5-0.6,0.8-1.5,0.8-2.7c0-1.2-0.3-2.1-0.8-2.7c-0.5-0.6-1.2-0.9-1.9-0.9
			c-0.7,0-1.3,0.3-1.9,0.9C246.6,40.3,246.3,41.2,246.3,42.4z M262.3,44.3l1.7,0.2c-0.3,1-0.8,1.8-1.5,2.3c-0.7,0.5-1.6,0.8-2.8,0.8
			c-1.4,0-2.5-0.4-3.4-1.3c-0.8-0.9-1.2-2.1-1.2-3.7c0-1.6,0.4-2.9,1.2-3.8c0.8-0.9,1.9-1.3,3.3-1.3c1.3,0,2.3,0.4,3.2,1.3
			c0.8,0.9,1.2,2.1,1.2,3.7c0,0.1,0,0.2,0,0.4h-7.2c0.1,1.1,0.4,1.9,0.9,2.5c0.5,0.6,1.2,0.8,2,0.8c0.6,0,1.1-0.2,1.5-0.5
			C261.7,45.5,262,44.9,262.3,44.3z M256.9,41.6h5.4c-0.1-0.8-0.3-1.4-0.6-1.8c-0.5-0.6-1.2-1-2-1c-0.8,0-1.4,0.3-1.9,0.8
			C257.2,40.1,256.9,40.8,256.9,41.6z M266,47.4v-9.7h1.5v1.4c0.3-0.5,0.7-0.9,1.2-1.1c0.5-0.3,1.1-0.4,1.7-0.4
			c0.7,0,1.3,0.2,1.8,0.5c0.5,0.3,0.8,0.7,1,1.2c0.8-1.1,1.8-1.7,3-1.7c1,0,1.7,0.3,2.2,0.8c0.5,0.5,0.8,1.3,0.8,2.5v6.6h-1.6v-6.1
			c0-0.7-0.1-1.1-0.2-1.4c-0.1-0.3-0.3-0.5-0.6-0.7c-0.3-0.2-0.6-0.3-1-0.3c-0.7,0-1.2,0.2-1.7,0.7c-0.4,0.4-0.7,1.2-0.7,2.2v5.6
			h-1.6v-6.3c0-0.7-0.1-1.3-0.4-1.6c-0.3-0.4-0.7-0.5-1.3-0.5c-0.5,0-0.9,0.1-1.3,0.4c-0.4,0.2-0.7,0.6-0.9,1.1
			c-0.2,0.5-0.3,1.1-0.2,2v5H266z M288.2,44.3l1.7,0.2c-0.3,1-0.8,1.8-1.5,2.3c-0.7,0.5-1.6,0.8-2.8,0.8c-1.4,0-2.5-0.4-3.4-1.3
			c-0.8-0.9-1.2-2.1-1.2-3.7c0-1.6,0.4-2.9,1.2-3.8c0.8-0.9,1.9-1.3,3.3-1.3c1.3,0,2.3,0.4,3.2,1.3c0.8,0.9,1.2,2.1,1.2,3.7
			c0,0.1,0,0.2,0,0.4h-7.2c0.1,1.1,0.4,1.9,0.9,2.5c0.5,0.6,1.2,0.8,2,0.8c0.6,0,1.1-0.2,1.5-0.5C287.6,45.5,287.9,44.9,288.2,44.3z
			 M282.8,41.6h5.4c-0.1-0.8-0.3-1.4-0.6-1.8c-0.5-0.6-1.2-1-2-1c-0.8,0-1.4,0.3-1.9,0.8C283.1,40.1,282.9,40.8,282.8,41.6z
			 M291.9,47.4v-9.7h1.5v1.4c0.7-1.1,1.7-1.6,3.1-1.6c0.6,0,1.1,0.1,1.6,0.3c0.5,0.2,0.9,0.5,1.1,0.8c0.2,0.3,0.4,0.7,0.5,1.2
			c0.1,0.3,0.1,0.8,0.1,1.6v6h-1.6v-5.9c0-0.7-0.1-1.2-0.2-1.5c-0.1-0.3-0.3-0.6-0.7-0.8c-0.3-0.2-0.7-0.3-1.1-0.3
			c-0.7,0-1.3,0.2-1.8,0.7c-0.5,0.4-0.8,1.3-0.8,2.5v5.3H291.9z M305.9,45.9l0.2,1.5c-0.5,0.1-0.9,0.1-1.2,0.1
			c-0.6,0-1.1-0.1-1.4-0.3c-0.3-0.2-0.6-0.4-0.7-0.7c-0.1-0.3-0.2-1-0.2-1.9V39h-1.2v-1.3h1.2v-2.4l1.6-1v3.4h1.7V39h-1.7v5.7
			c0,0.5,0,0.8,0.1,0.9c0.1,0.1,0.2,0.2,0.3,0.3c0.1,0.1,0.3,0.1,0.6,0.1C305.4,46,305.6,45.9,305.9,45.9z"/>
		<path d="M209.4,64.7l1.8,0.5c-0.4,1.4-1,2.6-2,3.3c-1,0.8-2.1,1.1-3.5,1.1c-1.4,0-2.6-0.3-3.5-0.9c-0.9-0.6-1.6-1.4-2.1-2.5
			c-0.5-1.1-0.7-2.3-0.7-3.6c0-1.4,0.3-2.6,0.8-3.6c0.5-1,1.3-1.8,2.3-2.4c1-0.5,2.1-0.8,3.2-0.8c1.3,0,2.5,0.3,3.4,1
			c0.9,0.7,1.6,1.6,1.9,2.9l-1.7,0.4c-0.3-1-0.8-1.7-1.4-2.1c-0.6-0.4-1.3-0.7-2.2-0.7c-1,0-1.9,0.2-2.6,0.7s-1.2,1.2-1.5,2
			c-0.3,0.8-0.4,1.7-0.4,2.6c0,1.1,0.2,2.1,0.5,3c0.3,0.8,0.8,1.5,1.5,1.9c0.7,0.4,1.5,0.6,2.3,0.6c1,0,1.8-0.3,2.5-0.9
			S209.1,65.8,209.4,64.7z M212.5,64.5c0-1.8,0.5-3.1,1.5-4c0.8-0.7,1.8-1.1,3-1.1c1.3,0,2.4,0.4,3.3,1.3c0.8,0.9,1.3,2.1,1.3,3.6
			c0,1.2-0.2,2.2-0.6,2.9c-0.4,0.7-0.9,1.3-1.6,1.7c-0.7,0.4-1.5,0.6-2.3,0.6c-1.4,0-2.4-0.4-3.3-1.3
			C212.9,67.4,212.5,66.2,212.5,64.5z M214.2,64.5c0,1.2,0.3,2.2,0.8,2.8c0.5,0.6,1.2,0.9,2,0.9c0.8,0,1.5-0.3,2-0.9
			c0.5-0.6,0.8-1.6,0.8-2.8c0-1.2-0.3-2.1-0.8-2.7s-1.2-0.9-2-0.9c-0.8,0-1.5,0.3-2,0.9C214.5,62.4,214.2,63.3,214.2,64.5z
			 M223.5,69.4v-9.7h1.5v1.4c0.3-0.5,0.7-0.9,1.2-1.1c0.5-0.3,1.1-0.4,1.7-0.4c0.7,0,1.3,0.2,1.8,0.5c0.5,0.3,0.8,0.7,1,1.2
			c0.8-1.1,1.8-1.7,3-1.7c1,0,1.7,0.3,2.2,0.8c0.5,0.5,0.8,1.3,0.8,2.5v6.6H235v-6.1c0-0.7-0.1-1.1-0.2-1.4
			c-0.1-0.3-0.3-0.5-0.6-0.7s-0.6-0.3-1-0.3c-0.7,0-1.2,0.2-1.7,0.7c-0.4,0.4-0.7,1.2-0.7,2.2v5.6h-1.6v-6.3c0-0.7-0.1-1.3-0.4-1.6
			s-0.7-0.5-1.3-0.5c-0.5,0-0.9,0.1-1.3,0.4s-0.7,0.6-0.9,1.1c-0.2,0.5-0.2,1.1-0.2,2v5H223.5z M239,73.1V59.7h1.5v1.2
			c0.4-0.5,0.8-0.9,1.2-1.1c0.4-0.2,1-0.4,1.6-0.4c0.8,0,1.5,0.2,2.2,0.6c0.6,0.4,1.1,1,1.4,1.8c0.3,0.8,0.5,1.6,0.5,2.5
			c0,1-0.2,1.9-0.5,2.7c-0.4,0.8-0.9,1.4-1.5,1.8c-0.7,0.4-1.4,0.6-2.1,0.6c-0.5,0-1-0.1-1.5-0.3s-0.8-0.5-1.1-0.9v4.7H239z
			 M240.5,64.6c0,1.2,0.2,2.2,0.8,2.8c0.5,0.6,1.1,0.9,1.8,0.9c0.7,0,1.4-0.3,1.9-0.9c0.5-0.6,0.8-1.6,0.8-2.9
			c0-1.2-0.3-2.2-0.8-2.8c-0.5-0.6-1.1-0.9-1.8-0.9c-0.7,0-1.3,0.3-1.9,1C240.8,62.4,240.5,63.3,240.5,64.6z M248.8,64.5
			c0-1.8,0.5-3.1,1.5-4c0.8-0.7,1.8-1.1,3-1.1c1.3,0,2.4,0.4,3.3,1.3c0.8,0.9,1.3,2.1,1.3,3.6c0,1.2-0.2,2.2-0.6,2.9
			c-0.4,0.7-0.9,1.3-1.6,1.7c-0.7,0.4-1.5,0.6-2.3,0.6c-1.4,0-2.4-0.4-3.3-1.3C249.2,67.4,248.8,66.2,248.8,64.5z M250.5,64.5
			c0,1.2,0.3,2.2,0.8,2.8c0.5,0.6,1.2,0.9,2,0.9c0.8,0,1.5-0.3,2-0.9c0.5-0.6,0.8-1.6,0.8-2.8c0-1.2-0.3-2.1-0.8-2.7s-1.2-0.9-2-0.9
			c-0.8,0-1.5,0.3-2,0.9C250.8,62.4,250.5,63.3,250.5,64.5z M259.8,69.4v-9.7h1.5v1.4c0.7-1.1,1.7-1.6,3.1-1.6
			c0.6,0,1.1,0.1,1.6,0.3s0.9,0.5,1.1,0.8c0.2,0.3,0.4,0.7,0.5,1.2c0.1,0.3,0.1,0.8,0.1,1.6v6H266v-5.9c0-0.7-0.1-1.2-0.2-1.5
			c-0.1-0.3-0.3-0.6-0.7-0.8s-0.7-0.3-1.1-0.3c-0.7,0-1.3,0.2-1.8,0.7c-0.5,0.4-0.8,1.3-0.8,2.5v5.3H259.8z M276.8,66.3l1.7,0.2
			c-0.3,1-0.8,1.8-1.5,2.3c-0.7,0.5-1.6,0.8-2.8,0.8c-1.4,0-2.5-0.4-3.4-1.3c-0.8-0.9-1.2-2.1-1.2-3.7c0-1.6,0.4-2.9,1.2-3.8
			c0.8-0.9,1.9-1.3,3.3-1.3c1.3,0,2.3,0.4,3.2,1.3c0.8,0.9,1.2,2.1,1.2,3.7c0,0.1,0,0.2,0,0.4h-7.2c0.1,1.1,0.4,1.9,0.9,2.5
			c0.5,0.6,1.2,0.8,2,0.8c0.6,0,1.1-0.2,1.5-0.5C276.2,67.5,276.5,66.9,276.8,66.3z M271.4,63.6h5.4c-0.1-0.8-0.3-1.4-0.6-1.8
			c-0.5-0.6-1.2-1-2-1c-0.8,0-1.4,0.3-1.9,0.8C271.7,62.1,271.4,62.8,271.4,63.6z M280.5,69.4v-9.7h1.5v1.4c0.7-1.1,1.7-1.6,3.1-1.6
			c0.6,0,1.1,0.1,1.6,0.3c0.5,0.2,0.9,0.5,1.1,0.8c0.2,0.3,0.4,0.7,0.5,1.2c0.1,0.3,0.1,0.8,0.1,1.6v6h-1.6v-5.9
			c0-0.7-0.1-1.2-0.2-1.5c-0.1-0.3-0.3-0.6-0.7-0.8c-0.3-0.2-0.7-0.3-1.1-0.3c-0.7,0-1.3,0.2-1.8,0.7c-0.5,0.4-0.8,1.3-0.8,2.5v5.3
			H280.5z M294.5,67.9l0.2,1.5c-0.5,0.1-0.9,0.1-1.2,0.1c-0.6,0-1.1-0.1-1.4-0.3c-0.3-0.2-0.6-0.4-0.7-0.7c-0.1-0.3-0.2-1-0.2-1.9
			V61H290v-1.3h1.2v-2.4l1.6-1v3.4h1.7V61h-1.7v5.7c0,0.5,0,0.8,0.1,0.9c0.1,0.1,0.2,0.2,0.3,0.3c0.1,0.1,0.3,0.1,0.6,0.1
			C294,68,294.2,67.9,294.5,67.9z M301.8,69.4V56h1.8v13.4H301.8z"/>
		<path class="st3" d="M308.3,241.6h86.4v62.3h-86.4V241.6z"/>
		<path class="st4" d="M308.3,241.6h86.4v62.3h-86.4V241.6z"/>
		<path d="M334.8,279.7l5.1-13.4h1.9l5.5,13.4h-2l-1.5-4h-5.6l-1.5,4H334.8z M338.7,274.2h4.5l-1.4-3.7c-0.4-1.1-0.7-2-0.9-2.8
			c-0.2,0.9-0.4,1.7-0.7,2.5L338.7,274.2z M348.6,283.4V270h1.5v1.2c0.4-0.5,0.8-0.9,1.2-1.1c0.4-0.2,1-0.4,1.6-0.4
			c0.8,0,1.5,0.2,2.2,0.6c0.6,0.4,1.1,1,1.4,1.8c0.3,0.8,0.5,1.6,0.5,2.5c0,1-0.2,1.9-0.5,2.7c-0.4,0.8-0.9,1.4-1.5,1.8
			c-0.7,0.4-1.4,0.6-2.1,0.6c-0.5,0-1-0.1-1.5-0.3c-0.4-0.2-0.8-0.5-1.1-0.9v4.7H348.6z M350,274.9c0,1.2,0.3,2.2,0.8,2.8
			c0.5,0.6,1.1,0.9,1.8,0.9c0.7,0,1.4-0.3,1.9-0.9c0.5-0.6,0.8-1.6,0.8-2.9c0-1.2-0.3-2.2-0.8-2.8c-0.5-0.6-1.1-0.9-1.8-0.9
			c-0.7,0-1.3,0.3-1.9,1C350.3,272.7,350,273.6,350,274.9z M358.9,283.4V270h1.5v1.2c0.4-0.5,0.8-0.9,1.2-1.1c0.4-0.2,1-0.4,1.6-0.4
			c0.8,0,1.5,0.2,2.2,0.6c0.6,0.4,1.1,1,1.4,1.8c0.3,0.8,0.5,1.6,0.5,2.5c0,1-0.2,1.9-0.5,2.7c-0.4,0.8-0.9,1.4-1.5,1.8
			c-0.7,0.4-1.4,0.6-2.1,0.6c-0.5,0-1-0.1-1.5-0.3c-0.4-0.2-0.8-0.5-1.1-0.9v4.7H358.9z M360.4,274.9c0,1.2,0.3,2.2,0.8,2.8
			c0.5,0.6,1.1,0.9,1.8,0.9c0.7,0,1.4-0.3,1.9-0.9c0.5-0.6,0.8-1.6,0.8-2.9c0-1.2-0.3-2.2-0.8-2.8c-0.5-0.6-1.1-0.9-1.8-0.9
			c-0.7,0-1.3,0.3-1.9,1C360.7,272.7,360.4,273.6,360.4,274.9z"/>
		<path class="st3" d="M308.3,178.3h86.4V218h-86.4V178.3z"/>
		<path class="st4" d="M308.3,178.3h86.4V218h-86.4V178.3z"/>
		<path d="M329.1,205.1v-13.4h5c0.9,0,1.6,0,2,0.1c0.6,0.1,1.2,0.3,1.6,0.6c0.4,0.3,0.8,0.7,1.1,1.3c0.3,0.6,0.4,1.2,0.4,1.8
			c0,1.1-0.4,2.1-1.1,2.9c-0.7,0.8-2,1.2-3.9,1.2h-3.4v5.4H329.1z M330.8,198.1h3.5c1.1,0,2-0.2,2.4-0.6c0.5-0.4,0.7-1,0.7-1.8
			c0-0.6-0.1-1-0.4-1.4c-0.3-0.4-0.7-0.7-1.1-0.8c-0.3-0.1-0.8-0.1-1.6-0.1h-3.4V198.1z M341.3,205.1v-9.7h1.5v1.5
			c0.4-0.7,0.7-1.1,1-1.4c0.3-0.2,0.7-0.3,1.1-0.3c0.6,0,1.1,0.2,1.7,0.5l-0.6,1.5c-0.4-0.2-0.8-0.4-1.2-0.4c-0.4,0-0.7,0.1-1,0.3
			s-0.5,0.5-0.6,0.9c-0.2,0.6-0.3,1.2-0.3,1.9v5.1H341.3z M346.9,200.2c0-1.8,0.5-3.1,1.5-4c0.8-0.7,1.8-1.1,3-1.1
			c1.3,0,2.4,0.4,3.3,1.3c0.8,0.9,1.3,2.1,1.3,3.6c0,1.2-0.2,2.2-0.6,2.9c-0.4,0.7-0.9,1.3-1.6,1.7c-0.7,0.4-1.5,0.6-2.3,0.6
			c-1.4,0-2.4-0.4-3.3-1.3C347.3,203.1,346.9,201.8,346.9,200.2z M348.6,200.2c0,1.2,0.3,2.2,0.8,2.8c0.5,0.6,1.2,0.9,2,0.9
			c0.8,0,1.5-0.3,2-0.9c0.5-0.6,0.8-1.6,0.8-2.8c0-1.2-0.3-2.1-0.8-2.7c-0.5-0.6-1.2-0.9-2-0.9c-0.8,0-1.5,0.3-2,0.9
			C348.9,198,348.6,199,348.6,200.2z M356.8,205.1l3.5-5l-3.3-4.6h2l1.5,2.3c0.3,0.4,0.5,0.8,0.7,1.1c0.3-0.4,0.5-0.8,0.7-1.1
			l1.6-2.3h2l-3.3,4.5l3.6,5.1h-2l-2-3l-0.5-0.8l-2.5,3.8H356.8z M367.1,208.8l-0.2-1.5c0.4,0.1,0.7,0.1,0.9,0.1
			c0.4,0,0.7-0.1,0.9-0.2c0.2-0.1,0.4-0.3,0.5-0.5c0.1-0.2,0.3-0.6,0.5-1.2c0-0.1,0.1-0.2,0.1-0.4l-3.7-9.7h1.8l2,5.6
			c0.3,0.7,0.5,1.5,0.7,2.2c0.2-0.8,0.4-1.5,0.7-2.2l2.1-5.6h1.6l-3.7,9.8c-0.4,1.1-0.7,1.8-0.9,2.2c-0.3,0.5-0.6,0.9-1,1.2
			c-0.4,0.2-0.8,0.4-1.3,0.4C367.9,209,367.5,208.9,367.1,208.8z"/>
		<path class="st3" d="M423.1,241.6h86.4v62.3h-86.4V241.6z"/>
		<path class="st4" d="M423.1,241.6h86.4v62.3h-86.4V241.6z"/>
		<path d="M449.6,279.7l5.1-13.4h1.9l5.5,13.4h-2l-1.5-4H453l-1.5,4H449.6z M453.5,274.2h4.5l-1.4-3.7c-0.4-1.1-0.7-2-0.9-2.8
			c-0.2,0.9-0.4,1.7-0.7,2.5L453.5,274.2z M463.4,283.4V270h1.5v1.2c0.4-0.5,0.8-0.9,1.2-1.1c0.4-0.2,1-0.4,1.6-0.4
			c0.8,0,1.5,0.2,2.2,0.6c0.6,0.4,1.1,1,1.4,1.8c0.3,0.8,0.5,1.6,0.5,2.5c0,1-0.2,1.9-0.5,2.7c-0.4,0.8-0.9,1.4-1.5,1.8
			c-0.7,0.4-1.4,0.6-2.1,0.6c-0.5,0-1-0.1-1.5-0.3s-0.8-0.5-1.1-0.9v4.7H463.4z M464.8,274.9c0,1.2,0.2,2.2,0.8,2.8
			c0.5,0.6,1.1,0.9,1.8,0.9c0.7,0,1.4-0.3,1.9-0.9c0.5-0.6,0.8-1.6,0.8-2.9c0-1.2-0.3-2.2-0.8-2.8c-0.5-0.6-1.1-0.9-1.8-0.9
			c-0.7,0-1.3,0.3-1.9,1C465.1,272.7,464.8,273.6,464.8,274.9z M473.7,283.4V270h1.5v1.2c0.4-0.5,0.8-0.9,1.2-1.1
			c0.4-0.2,1-0.4,1.6-0.4c0.8,0,1.5,0.2,2.2,0.6c0.6,0.4,1.1,1,1.4,1.8c0.3,0.8,0.5,1.6,0.5,2.5c0,1-0.2,1.9-0.5,2.7
			c-0.4,0.8-0.9,1.4-1.5,1.8c-0.7,0.4-1.4,0.6-2.1,0.6c-0.5,0-1-0.1-1.5-0.3s-0.8-0.5-1.1-0.9v4.7H473.7z M475.2,274.9
			c0,1.2,0.2,2.2,0.8,2.8c0.5,0.6,1.1,0.9,1.8,0.9c0.7,0,1.4-0.3,1.9-0.9c0.5-0.6,0.8-1.6,0.8-2.9c0-1.2-0.3-2.2-0.8-2.8
			c-0.5-0.6-1.1-0.9-1.8-0.9c-0.7,0-1.3,0.3-1.9,1C475.5,272.7,475.2,273.6,475.2,274.9z"/>
		<path class="st3" d="M423.1,178.3h86.4V218h-86.4V178.3z"/>
		<path class="st4" d="M423.1,178.3h86.4V218h-86.4V178.3z"/>
		<path d="M443.9,205.1v-13.4h5c0.9,0,1.6,0,2,0.1c0.6,0.1,1.2,0.3,1.6,0.6c0.4,0.3,0.8,0.7,1.1,1.3c0.3,0.6,0.4,1.2,0.4,1.8
			c0,1.1-0.4,2.1-1.1,2.9c-0.7,0.8-2,1.2-3.9,1.2h-3.4v5.4H443.9z M445.6,198.1h3.5c1.1,0,2-0.2,2.4-0.6c0.5-0.4,0.7-1,0.7-1.8
			c0-0.6-0.1-1-0.4-1.4c-0.3-0.4-0.7-0.7-1.1-0.8c-0.3-0.1-0.8-0.1-1.6-0.1h-3.4V198.1z M456.1,205.1v-9.7h1.5v1.5
			c0.4-0.7,0.7-1.1,1-1.4c0.3-0.2,0.7-0.3,1.1-0.3c0.6,0,1.1,0.2,1.7,0.5l-0.6,1.5c-0.4-0.2-0.8-0.4-1.2-0.4c-0.4,0-0.7,0.1-1,0.3
			s-0.5,0.5-0.6,0.9c-0.2,0.6-0.3,1.2-0.3,1.9v5.1H456.1z M461.7,200.2c0-1.8,0.5-3.1,1.5-4c0.8-0.7,1.8-1.1,3-1.1
			c1.3,0,2.4,0.4,3.3,1.3c0.8,0.9,1.3,2.1,1.3,3.6c0,1.2-0.2,2.2-0.6,2.9c-0.4,0.7-0.9,1.3-1.6,1.7c-0.7,0.4-1.5,0.6-2.3,0.6
			c-1.4,0-2.4-0.4-3.3-1.3C462.1,203.1,461.7,201.8,461.7,200.2z M463.4,200.2c0,1.2,0.3,2.2,0.8,2.8c0.5,0.6,1.2,0.9,2,0.9
			c0.8,0,1.5-0.3,2-0.9c0.5-0.6,0.8-1.6,0.8-2.8c0-1.2-0.3-2.1-0.8-2.7c-0.5-0.6-1.2-0.9-2-0.9c-0.8,0-1.5,0.3-2,0.9
			C463.7,198,463.4,199,463.4,200.2z M471.6,205.1l3.5-5l-3.3-4.6h2l1.5,2.3c0.3,0.4,0.5,0.8,0.7,1.1c0.3-0.4,0.5-0.8,0.7-1.1
			l1.6-2.3h2l-3.3,4.5l3.6,5.1h-2l-2-3l-0.5-0.8l-2.5,3.8H471.6z M481.9,208.8l-0.2-1.5c0.4,0.1,0.7,0.1,0.9,0.1
			c0.4,0,0.7-0.1,0.9-0.2c0.2-0.1,0.4-0.3,0.5-0.5c0.1-0.2,0.3-0.6,0.5-1.2c0-0.1,0.1-0.2,0.1-0.4l-3.7-9.7h1.8l2,5.6
			c0.3,0.7,0.5,1.5,0.7,2.2c0.2-0.8,0.4-1.5,0.7-2.2l2.1-5.6h1.6l-3.7,9.8c-0.4,1.1-0.7,1.8-0.9,2.2c-0.3,0.5-0.6,0.9-1,1.2
			s-0.8,0.4-1.3,0.4C482.7,209,482.3,208.9,481.9,208.8z"/>
		<path class="st3" d="M537.9,241.6h86.4v62.3h-86.4V241.6z"/>
		<path class="st4" d="M537.9,241.6h86.4v62.3h-86.4V241.6z"/>
		<path d="M564.4,279.7l5.1-13.4h1.9l5.5,13.4h-2l-1.5-4h-5.6l-1.5,4H564.4z M568.3,274.2h4.5l-1.4-3.7c-0.4-1.1-0.7-2-0.9-2.8
			c-0.2,0.9-0.4,1.7-0.7,2.5L568.3,274.2z M578.1,283.4V270h1.5v1.2c0.4-0.5,0.8-0.9,1.2-1.1c0.4-0.2,1-0.4,1.6-0.4
			c0.8,0,1.5,0.2,2.2,0.6c0.6,0.4,1.1,1,1.4,1.8c0.3,0.8,0.5,1.6,0.5,2.5c0,1-0.2,1.9-0.5,2.7c-0.4,0.8-0.9,1.4-1.5,1.8
			c-0.7,0.4-1.4,0.6-2.1,0.6c-0.5,0-1-0.1-1.5-0.3s-0.8-0.5-1.1-0.9v4.7H578.1z M579.6,274.9c0,1.2,0.2,2.2,0.8,2.8
			c0.5,0.6,1.1,0.9,1.8,0.9c0.7,0,1.4-0.3,1.9-0.9c0.5-0.6,0.8-1.6,0.8-2.9c0-1.2-0.3-2.2-0.8-2.8c-0.5-0.6-1.1-0.9-1.8-0.9
			c-0.7,0-1.3,0.3-1.9,1C579.9,272.7,579.6,273.6,579.6,274.9z M588.5,283.4V270h1.5v1.2c0.4-0.5,0.8-0.9,1.2-1.1
			c0.4-0.2,1-0.4,1.6-0.4c0.8,0,1.5,0.2,2.2,0.6c0.6,0.4,1.1,1,1.4,1.8c0.3,0.8,0.5,1.6,0.5,2.5c0,1-0.2,1.9-0.5,2.7
			s-0.9,1.4-1.5,1.8c-0.7,0.4-1.4,0.6-2.1,0.6c-0.5,0-1-0.1-1.5-0.3s-0.8-0.5-1.1-0.9v4.7H588.5z M590,274.9c0,1.2,0.2,2.2,0.8,2.8
			c0.5,0.6,1.1,0.9,1.8,0.9c0.7,0,1.4-0.3,1.9-0.9c0.5-0.6,0.8-1.6,0.8-2.9c0-1.2-0.3-2.2-0.8-2.8c-0.5-0.6-1.1-0.9-1.8-0.9
			c-0.7,0-1.3,0.3-1.9,1C590.3,272.7,590,273.6,590,274.9z"/>
		<path class="st3" d="M537.9,178.3h86.4V218h-86.4V178.3z"/>
		<path class="st4" d="M537.9,178.3h86.4V218h-86.4V178.3z"/>
		<path d="M558.7,205.1v-13.4h5c0.9,0,1.6,0,2,0.1c0.6,0.1,1.2,0.3,1.6,0.6c0.4,0.3,0.8,0.7,1.1,1.3c0.3,0.6,0.4,1.2,0.4,1.8
			c0,1.1-0.4,2.1-1.1,2.9c-0.7,0.8-2,1.2-3.9,1.2h-3.4v5.4H558.7z M560.4,198.1h3.5c1.1,0,2-0.2,2.4-0.6c0.5-0.4,0.7-1,0.7-1.8
			c0-0.6-0.1-1-0.4-1.4c-0.3-0.4-0.7-0.7-1.1-0.8c-0.3-0.1-0.8-0.1-1.6-0.1h-3.4V198.1z M570.9,205.1v-9.7h1.5v1.5
			c0.4-0.7,0.7-1.1,1-1.4c0.3-0.2,0.7-0.3,1.1-0.3c0.6,0,1.1,0.2,1.7,0.5l-0.6,1.5c-0.4-0.2-0.8-0.4-1.2-0.4c-0.4,0-0.7,0.1-1,0.3
			s-0.5,0.5-0.6,0.9c-0.2,0.6-0.3,1.2-0.3,1.9v5.1H570.9z M576.5,200.2c0-1.8,0.5-3.1,1.5-4c0.8-0.7,1.8-1.1,3-1.1
			c1.3,0,2.4,0.4,3.3,1.3c0.8,0.9,1.3,2.1,1.3,3.6c0,1.2-0.2,2.2-0.6,2.9c-0.4,0.7-0.9,1.3-1.6,1.7c-0.7,0.4-1.5,0.6-2.3,0.6
			c-1.4,0-2.4-0.4-3.3-1.3C576.9,203.1,576.5,201.8,576.5,200.2z M578.2,200.2c0,1.2,0.3,2.2,0.8,2.8c0.5,0.6,1.2,0.9,2,0.9
			c0.8,0,1.5-0.3,2-0.9c0.5-0.6,0.8-1.6,0.8-2.8c0-1.2-0.3-2.1-0.8-2.7c-0.5-0.6-1.2-0.9-2-0.9c-0.8,0-1.5,0.3-2,0.9
			C578.5,198,578.2,199,578.2,200.2z M586.4,205.1l3.5-5l-3.3-4.6h2l1.5,2.3c0.3,0.4,0.5,0.8,0.7,1.1c0.3-0.4,0.5-0.8,0.7-1.1
			l1.6-2.3h2l-3.3,4.5l3.6,5.1h-2l-2-3l-0.5-0.8l-2.5,3.8H586.4z M596.7,208.8l-0.2-1.5c0.4,0.1,0.7,0.1,0.9,0.1
			c0.4,0,0.7-0.1,0.9-0.2c0.2-0.1,0.4-0.3,0.5-0.5c0.1-0.2,0.3-0.6,0.5-1.2c0-0.1,0.1-0.2,0.1-0.4l-3.7-9.7h1.8l2,5.6
			c0.3,0.7,0.5,1.5,0.7,2.2c0.2-0.8,0.4-1.5,0.7-2.2l2.1-5.6h1.6l-3.7,9.8c-0.4,1.1-0.7,1.8-0.9,2.2c-0.3,0.5-0.6,0.9-1,1.2
			s-0.8,0.4-1.3,0.4C597.5,209,597.1,208.9,596.7,208.8z"/>
		<path class="st1" d="M226.9,218L226.9,218"/>
		<path class="st4" d="M226.9,218L226.9,218"/>
		<path class="st1" d="M220.8,217.5l-8,24.6"/>
		<path class="st4" d="M220.8,217.5l-6.2,18.9"/>
		<path class="st5" d="M213.1,235.9l0.2,4.8l3-3.8L213.1,235.9z"/>
		<path class="st1" d="M239,238.3l-1-20.9"/>
		<path class="st4" d="M239,238.3l-0.7-14.9"/>
		<path class="st5" d="M239.9,223.4l-1.9-4.5l-1.4,4.6L239.9,223.4z"/>
		<path class="st1" d="M348.8,217.5l-8,24.6"/>
		<path class="st4" d="M348.8,217.5l-6.2,18.9"/>
		<path class="st5" d="M341.1,235.9l0.2,4.8l3-3.8L341.1,235.9z"/>
		<path class="st1" d="M367,238.3l-1-20.9"/>
		<path class="st4" d="M367,238.3l-0.7-14.9"/>
		<path class="st5" d="M367.9,223.4l-1.9-4.5l-1.4,4.6L367.9,223.4z"/>
		<path class="st1" d="M460.8,217.5l-8,24.6"/>
		<path class="st4" d="M460.8,217.5l-6.2,18.9"/>
		<path class="st5" d="M453.1,235.9l0.2,4.8l3-3.8L453.1,235.9z"/>
		<path class="st1" d="M479,238.3l-1-20.9"/>
		<path class="st4" d="M479,238.3l-0.7-14.9"/>
		<path class="st5" d="M479.9,223.4l-1.9-4.5l-1.4,4.6L479.9,223.4z"/>
		<path class="st1" d="M572.8,217.5l-8,24.6"/>
		<path class="st4" d="M572.8,217.5l-6.2,18.9"/>
		<path class="st5" d="M565.1,235.9l0.2,4.8l3-3.8L565.1,235.9z"/>
		<path class="st1" d="M591,238.3l-1-20.9"/>
		<path class="st4" d="M591,238.3l-0.7-14.9"/>
		<path class="st5" d="M591.9,223.4l-1.9-4.5l-1.4,4.6L591.9,223.4z"/>
		<path class="st1" d="M160.1,97.8c-10.2,0-18.4-1.4-18.4-3.1V58.7c0-1.7-8.3-3.1-18.4-3.1l0,0c10.2,0,18.4-1.4,18.4-3.1V16.5l0,0
			c0-1.7,8.3-3.1,18.4-3.1V97.8z"/>
		<path class="st1" d="M160.1,97.8c-10.2,0-18.4-1.4-18.4-3.1V58.7c0-1.7-8.3-3.1-18.4-3.1l0,0c10.2,0,18.4-1.4,18.4-3.1V16.5l0,0
			c0-1.7,8.3-3.1,18.4-3.1"/>
		<path class="st4" d="M160.1,97.8c-10.2,0-18.4-1.4-18.4-3.1V58.7c0-1.7-8.3-3.1-18.4-3.1l0,0c10.2,0,18.4-1.4,18.4-3.1V16.5l0,0
			c0-1.7,8.3-3.1,18.4-3.1"/>
		<path class="st1" d="M160.1,224.6c-10.2,0-18.4-1.4-18.4-3.1v-21c0-1.7-8.3-3.1-18.4-3.1l0,0c10.2,0,18.4-1.4,18.4-3.1v-21l0,0
			c0-1.7,8.3-3.1,18.4-3.1V224.6z"/>
		<path class="st1" d="M160.1,224.6c-10.2,0-18.4-1.4-18.4-3.1v-21c0-1.7-8.3-3.1-18.4-3.1l0,0c10.2,0,18.4-1.4,18.4-3.1v-21l0,0
			c0-1.7,8.3-3.1,18.4-3.1"/>
		<path class="st4" d="M160.1,224.6c-10.2,0-18.4-1.4-18.4-3.1v-21c0-1.7-8.3-3.1-18.4-3.1l0,0c10.2,0,18.4-1.4,18.4-3.1v-21l0,0
			c0-1.7,8.3-3.1,18.4-3.1"/>
		<path class="st1" d="M638,170.3h67.3V210H638V170.3z"/>
		<path d="M656.3,205.3v-4h4v4H656.3z M669.7,205.3v-4h4v4H669.7z M683,205.3v-4h4v4H683z"/>
		<path class="st1" d="M638,242.3h67.3V282H638V242.3z"/>
		<path d="M656.3,277.3v-4h4v4H656.3z M669.7,277.3v-4h4v4H669.7z M683,277.3v-4h4v4H683z"/>
		<path class="st1" d="M487.4,20.3h67.3V60h-67.3V20.3z"/>
		<path d="M505.7,55.3v-4h4v4H505.7z M519,55.3v-4h4v4H519z M532.4,55.3v-4h4v4H532.4z"/>
		<path class="st1" d="M-13.7,34.8h136.9v39.7H-13.7L-13.7,34.8z"/>
		<path d="M14.2,57l1.8,0.5c-0.4,1.4-1,2.6-2,3.3c-1,0.8-2.1,1.1-3.5,1.1c-1.4,0-2.6-0.3-3.5-0.9c-0.9-0.6-1.6-1.4-2.1-2.5
			c-0.5-1.1-0.7-2.3-0.7-3.6c0-1.4,0.3-2.6,0.8-3.6c0.5-1,1.3-1.8,2.3-2.4c1-0.5,2.1-0.8,3.2-0.8c1.3,0,2.5,0.3,3.4,1
			c0.9,0.7,1.6,1.6,1.9,2.9L14,52.5c-0.3-1-0.8-1.7-1.4-2.1c-0.6-0.4-1.3-0.7-2.2-0.7c-1,0-1.9,0.2-2.6,0.7s-1.2,1.2-1.5,2
			C6.1,53.2,6,54.1,6,55c0,1.1,0.2,2.1,0.5,3s0.8,1.5,1.5,1.9c0.7,0.4,1.5,0.6,2.3,0.6c1,0,1.8-0.3,2.5-0.9C13.5,59,14,58.2,14.2,57
			z M17.4,56.9c0-1.8,0.5-3.1,1.5-4c0.8-0.7,1.8-1.1,3-1.1c1.3,0,2.4,0.4,3.3,1.3c0.8,0.9,1.3,2.1,1.3,3.6c0,1.2-0.2,2.2-0.6,2.9
			c-0.4,0.7-0.9,1.3-1.6,1.7c-0.7,0.4-1.5,0.6-2.3,0.6c-1.4,0-2.4-0.4-3.3-1.3C17.8,59.8,17.4,58.5,17.4,56.9z M19,56.9
			c0,1.2,0.3,2.2,0.8,2.8c0.5,0.6,1.2,0.9,2,0.9c0.8,0,1.5-0.3,2-0.9c0.5-0.6,0.8-1.6,0.8-2.8c0-1.2-0.3-2.1-0.8-2.7s-1.2-0.9-2-0.9
			c-0.8,0-1.5,0.3-2,0.9C19.3,54.7,19,55.7,19,56.9z M28.3,61.7v-9.7h1.5v1.4c0.7-1.1,1.7-1.6,3.1-1.6c0.6,0,1.1,0.1,1.6,0.3
			c0.5,0.2,0.9,0.5,1.1,0.8c0.2,0.3,0.4,0.7,0.5,1.2c0.1,0.3,0.1,0.8,0.1,1.6v6h-1.6v-5.9c0-0.7-0.1-1.2-0.2-1.5
			c-0.1-0.3-0.3-0.6-0.7-0.8c-0.3-0.2-0.7-0.3-1.1-0.3c-0.7,0-1.3,0.2-1.8,0.7c-0.5,0.4-0.8,1.3-0.8,2.5v5.3H28.3z M42.3,60.3
			l0.2,1.5c-0.5,0.1-0.9,0.1-1.2,0.1c-0.6,0-1.1-0.1-1.4-0.3c-0.3-0.2-0.6-0.4-0.7-0.7c-0.1-0.3-0.2-1-0.2-1.9v-5.6h-1.2v-1.3H39
			v-2.4l1.6-1v3.4h1.7v1.3h-1.7V59c0,0.5,0,0.8,0.1,0.9c0.1,0.1,0.2,0.2,0.3,0.3c0.1,0.1,0.3,0.1,0.6,0.1
			C41.8,60.3,42,60.3,42.3,60.3z M43.9,61.7v-9.7h1.5v1.5c0.4-0.7,0.7-1.1,1-1.4c0.3-0.2,0.7-0.3,1.1-0.3c0.6,0,1.1,0.2,1.7,0.5
			l-0.6,1.5c-0.4-0.2-0.8-0.4-1.2-0.4c-0.4,0-0.7,0.1-1,0.3c-0.3,0.2-0.5,0.5-0.6,0.9c-0.2,0.6-0.3,1.2-0.3,1.9v5.1H43.9z
			 M49.5,56.9c0-1.8,0.5-3.1,1.5-4c0.8-0.7,1.8-1.1,3-1.1c1.3,0,2.4,0.4,3.3,1.3c0.8,0.9,1.3,2.1,1.3,3.6c0,1.2-0.2,2.2-0.6,2.9
			c-0.4,0.7-0.9,1.3-1.6,1.7C55.7,61.8,54.9,62,54,62c-1.4,0-2.4-0.4-3.3-1.3C49.9,59.8,49.5,58.5,49.5,56.9z M51.2,56.9
			c0,1.2,0.3,2.2,0.8,2.8c0.5,0.6,1.2,0.9,2,0.9c0.8,0,1.5-0.3,2-0.9c0.5-0.6,0.8-1.6,0.8-2.8c0-1.2-0.3-2.1-0.8-2.7
			c-0.5-0.6-1.2-0.9-2-0.9c-0.8,0-1.5,0.3-2,0.9C51.5,54.7,51.2,55.7,51.2,56.9z M60.4,61.7V48.4h1.6v13.4H60.4z M69.8,65.4V52.1
			h1.5v1.2c0.4-0.5,0.8-0.9,1.2-1.1c0.4-0.2,1-0.4,1.6-0.4c0.8,0,1.5,0.2,2.2,0.6c0.6,0.4,1.1,1,1.4,1.8c0.3,0.8,0.5,1.6,0.5,2.5
			c0,1-0.2,1.9-0.5,2.7s-0.9,1.4-1.5,1.8C75.5,61.7,74.7,62,74,62c-0.5,0-1-0.1-1.5-0.3s-0.8-0.5-1.1-0.9v4.7H69.8z M71.3,57
			c0,1.2,0.2,2.2,0.8,2.8c0.5,0.6,1.1,0.9,1.8,0.9c0.7,0,1.4-0.3,1.9-0.9c0.5-0.6,0.8-1.6,0.8-2.9c0-1.2-0.3-2.2-0.8-2.8
			c-0.5-0.6-1.1-0.9-1.8-0.9c-0.7,0-1.3,0.3-1.9,1C71.6,54.8,71.3,55.7,71.3,57z M80.1,61.7V48.4h1.6v13.4H80.1z M90.6,60.5
			c-0.6,0.5-1.2,0.9-1.8,1.1c-0.6,0.2-1.2,0.3-1.8,0.3c-1.1,0-1.9-0.3-2.5-0.8s-0.9-1.2-0.9-2c0-0.5,0.1-0.9,0.3-1.3
			c0.2-0.4,0.5-0.7,0.8-0.9c0.4-0.2,0.8-0.4,1.2-0.5c0.3-0.1,0.8-0.2,1.5-0.2c1.3-0.2,2.3-0.3,2.9-0.6c0-0.2,0-0.4,0-0.4
			c0-0.7-0.2-1.1-0.5-1.4c-0.4-0.4-1-0.5-1.9-0.5c-0.8,0-1.3,0.1-1.7,0.4s-0.6,0.7-0.8,1.4l-1.6-0.2c0.1-0.7,0.4-1.2,0.7-1.6
			c0.3-0.4,0.8-0.8,1.5-1s1.4-0.3,2.2-0.3c0.8,0,1.5,0.1,2,0.3c0.5,0.2,0.9,0.4,1.1,0.7c0.2,0.3,0.4,0.7,0.5,1.1
			c0.1,0.3,0.1,0.8,0.1,1.5v2.2c0,1.5,0,2.5,0.1,2.9c0.1,0.4,0.2,0.8,0.4,1.2H91C90.8,61.4,90.7,61,90.6,60.5z M90.5,56.9
			c-0.6,0.2-1.5,0.5-2.7,0.6c-0.7,0.1-1.2,0.2-1.4,0.3s-0.5,0.3-0.7,0.5c-0.1,0.2-0.2,0.5-0.2,0.8c0,0.4,0.2,0.8,0.5,1.1
			s0.8,0.4,1.5,0.4c0.6,0,1.2-0.1,1.7-0.4c0.5-0.3,0.9-0.7,1.1-1.1c0.2-0.4,0.3-0.9,0.3-1.6V56.9z M94.7,61.7v-9.7h1.5v1.4
			c0.7-1.1,1.7-1.6,3.1-1.6c0.6,0,1.1,0.1,1.6,0.3c0.5,0.2,0.9,0.5,1.1,0.8c0.2,0.3,0.4,0.7,0.5,1.2c0.1,0.3,0.1,0.8,0.1,1.6v6h-1.6
			v-5.9c0-0.7-0.1-1.2-0.2-1.5c-0.1-0.3-0.3-0.6-0.7-0.8c-0.3-0.2-0.7-0.3-1.1-0.3c-0.7,0-1.3,0.2-1.8,0.7c-0.5,0.4-0.8,1.3-0.8,2.5
			v5.3H94.7z M111.7,58.6l1.7,0.2c-0.3,1-0.8,1.8-1.5,2.3c-0.7,0.5-1.6,0.8-2.8,0.8c-1.4,0-2.5-0.4-3.4-1.3
			c-0.8-0.9-1.2-2.1-1.2-3.7c0-1.6,0.4-2.9,1.2-3.8c0.8-0.9,1.9-1.3,3.3-1.3c1.3,0,2.3,0.4,3.2,1.3c0.8,0.9,1.2,2.1,1.2,3.7
			c0,0.1,0,0.2,0,0.4h-7.2c0.1,1.1,0.4,1.9,0.9,2.5c0.5,0.6,1.2,0.8,2,0.8c0.6,0,1.1-0.2,1.5-0.5C111.1,59.8,111.5,59.3,111.7,58.6z
			 M106.3,56h5.4c-0.1-0.8-0.3-1.4-0.6-1.8c-0.5-0.6-1.2-1-2-1c-0.8,0-1.4,0.3-1.9,0.8C106.7,54.5,106.4,55.1,106.3,56z"/>
		<path class="st1" d="M0,177.6h109.5v39.7H0V177.6z"/>
		<path d="M11.7,204.5v-13.4h4.6c1,0,1.8,0.1,2.4,0.2c0.8,0.2,1.4,0.5,2,1c0.7,0.6,1.2,1.4,1.6,2.3c0.4,0.9,0.5,2,0.5,3.2
			c0,1-0.1,1.9-0.4,2.7c-0.2,0.8-0.5,1.4-0.9,1.9c-0.4,0.5-0.8,0.9-1.2,1.2c-0.4,0.3-1,0.5-1.6,0.7c-0.6,0.1-1.3,0.2-2.1,0.2H11.7z
			 M13.5,202.9h2.9c0.9,0,1.6-0.1,2.1-0.2c0.5-0.2,0.9-0.4,1.2-0.7c0.4-0.4,0.7-1,1-1.7c0.2-0.7,0.4-1.6,0.4-2.6
			c0-1.4-0.2-2.5-0.7-3.2c-0.5-0.8-1-1.2-1.7-1.5c-0.5-0.2-1.2-0.3-2.3-0.3h-2.8V202.9z M31.3,203.3c-0.6,0.5-1.2,0.9-1.8,1.1
			c-0.6,0.2-1.2,0.3-1.8,0.3c-1.1,0-1.9-0.3-2.5-0.8c-0.6-0.5-0.9-1.2-0.9-2c0-0.5,0.1-0.9,0.3-1.3c0.2-0.4,0.5-0.7,0.8-0.9
			c0.4-0.2,0.8-0.4,1.2-0.5c0.3-0.1,0.8-0.2,1.5-0.2c1.3-0.2,2.3-0.3,2.9-0.6c0-0.2,0-0.4,0-0.4c0-0.7-0.2-1.1-0.5-1.4
			c-0.4-0.4-1-0.5-1.9-0.5c-0.8,0-1.3,0.1-1.7,0.4c-0.4,0.3-0.6,0.7-0.8,1.4l-1.6-0.2c0.1-0.7,0.4-1.2,0.7-1.6
			c0.3-0.4,0.8-0.8,1.5-1c0.6-0.2,1.4-0.3,2.2-0.3c0.8,0,1.5,0.1,2,0.3c0.5,0.2,0.9,0.4,1.1,0.7c0.2,0.3,0.4,0.7,0.5,1.1
			c0.1,0.3,0.1,0.8,0.1,1.5v2.2c0,1.5,0,2.5,0.1,2.9c0.1,0.4,0.2,0.8,0.4,1.2h-1.7C31.5,204.2,31.4,203.8,31.3,203.3z M31.2,199.6
			c-0.6,0.2-1.5,0.5-2.7,0.6c-0.7,0.1-1.2,0.2-1.4,0.3s-0.5,0.3-0.7,0.5c-0.1,0.2-0.2,0.5-0.2,0.8c0,0.4,0.2,0.8,0.5,1.1
			c0.3,0.3,0.8,0.4,1.5,0.4c0.6,0,1.2-0.1,1.7-0.4c0.5-0.3,0.9-0.7,1.1-1.1c0.2-0.4,0.3-0.9,0.3-1.6V199.6z M39,203l0.2,1.5
			c-0.5,0.1-0.9,0.1-1.2,0.1c-0.6,0-1.1-0.1-1.4-0.3c-0.3-0.2-0.6-0.4-0.7-0.7c-0.1-0.3-0.2-1-0.2-1.9v-5.6h-1.2v-1.3h1.2v-2.4
			l1.6-1v3.4H39v1.3h-1.7v5.7c0,0.5,0,0.8,0.1,0.9c0.1,0.1,0.2,0.2,0.3,0.3c0.1,0.1,0.3,0.1,0.6,0.1C38.4,203.1,38.7,203.1,39,203z
			 M46.9,203.3c-0.6,0.5-1.2,0.9-1.8,1.1c-0.6,0.2-1.2,0.3-1.8,0.3c-1.1,0-1.9-0.3-2.5-0.8c-0.6-0.5-0.9-1.2-0.9-2
			c0-0.5,0.1-0.9,0.3-1.3c0.2-0.4,0.5-0.7,0.8-0.9c0.4-0.2,0.8-0.4,1.2-0.5c0.3-0.1,0.8-0.2,1.5-0.2c1.3-0.2,2.3-0.3,2.9-0.6
			c0-0.2,0-0.4,0-0.4c0-0.7-0.2-1.1-0.5-1.4c-0.4-0.4-1-0.5-1.9-0.5c-0.8,0-1.3,0.1-1.7,0.4c-0.4,0.3-0.6,0.7-0.8,1.4l-1.6-0.2
			c0.1-0.7,0.4-1.2,0.7-1.6c0.3-0.4,0.8-0.8,1.5-1c0.6-0.2,1.4-0.3,2.2-0.3c0.8,0,1.5,0.1,2,0.3c0.5,0.2,0.9,0.4,1.1,0.7
			c0.2,0.3,0.4,0.7,0.5,1.1c0.1,0.3,0.1,0.8,0.1,1.5v2.2c0,1.5,0,2.5,0.1,2.9c0.1,0.4,0.2,0.8,0.4,1.2h-1.7
			C47,204.2,46.9,203.8,46.9,203.3z M46.7,199.6c-0.6,0.2-1.5,0.5-2.7,0.6c-0.7,0.1-1.2,0.2-1.4,0.3s-0.5,0.3-0.7,0.5
			c-0.1,0.2-0.2,0.5-0.2,0.8c0,0.4,0.2,0.8,0.5,1.1c0.3,0.3,0.8,0.4,1.5,0.4c0.6,0,1.2-0.1,1.7-0.4c0.5-0.3,0.9-0.7,1.1-1.1
			c0.2-0.4,0.3-0.9,0.3-1.6V199.6z M56.1,208.2v-13.4h1.5v1.2c0.4-0.5,0.8-0.9,1.2-1.1c0.4-0.2,1-0.4,1.6-0.4c0.8,0,1.5,0.2,2.2,0.6
			c0.6,0.4,1.1,1,1.4,1.8c0.3,0.8,0.5,1.6,0.5,2.5c0,1-0.2,1.9-0.5,2.7c-0.4,0.8-0.9,1.4-1.5,1.8c-0.7,0.4-1.4,0.6-2.1,0.6
			c-0.5,0-1-0.1-1.5-0.3s-0.8-0.5-1.1-0.9v4.7H56.1z M57.6,199.7c0,1.2,0.2,2.2,0.8,2.8c0.5,0.6,1.1,0.9,1.8,0.9
			c0.7,0,1.4-0.3,1.9-0.9c0.5-0.6,0.8-1.6,0.8-2.9c0-1.2-0.3-2.2-0.8-2.8c-0.5-0.6-1.1-0.9-1.8-0.9c-0.7,0-1.3,0.3-1.9,1
			C57.9,197.5,57.6,198.5,57.6,199.7z M66.5,204.5v-13.4h1.6v13.4H66.5z M77,203.3c-0.6,0.5-1.2,0.9-1.8,1.1
			c-0.6,0.2-1.2,0.3-1.8,0.3c-1.1,0-1.9-0.3-2.5-0.8c-0.6-0.5-0.9-1.2-0.9-2c0-0.5,0.1-0.9,0.3-1.3c0.2-0.4,0.5-0.7,0.8-0.9
			c0.4-0.2,0.8-0.4,1.2-0.5c0.3-0.1,0.8-0.2,1.5-0.2c1.3-0.2,2.3-0.3,2.9-0.6c0-0.2,0-0.4,0-0.4c0-0.7-0.2-1.1-0.5-1.4
			c-0.4-0.4-1-0.5-1.9-0.5c-0.8,0-1.3,0.1-1.7,0.4c-0.4,0.3-0.6,0.7-0.8,1.4l-1.6-0.2c0.1-0.7,0.4-1.2,0.7-1.6
			c0.3-0.4,0.8-0.8,1.5-1c0.6-0.2,1.4-0.3,2.2-0.3c0.8,0,1.5,0.1,2,0.3c0.5,0.2,0.9,0.4,1.1,0.7c0.2,0.3,0.4,0.7,0.5,1.1
			c0.1,0.3,0.1,0.8,0.1,1.5v2.2c0,1.5,0,2.5,0.1,2.9c0.1,0.4,0.2,0.8,0.4,1.2h-1.7C77.1,204.2,77,203.8,77,203.3z M76.8,199.6
			c-0.6,0.2-1.5,0.5-2.7,0.6c-0.7,0.1-1.2,0.2-1.4,0.3s-0.5,0.3-0.7,0.5c-0.1,0.2-0.2,0.5-0.2,0.8c0,0.4,0.2,0.8,0.5,1.1
			c0.3,0.3,0.8,0.4,1.5,0.4c0.6,0,1.2-0.1,1.7-0.4c0.5-0.3,0.9-0.7,1.1-1.1c0.2-0.4,0.3-0.9,0.3-1.6V199.6z M81,204.5v-9.7h1.5v1.4
			c0.7-1.1,1.7-1.6,3.1-1.6c0.6,0,1.1,0.1,1.6,0.3s0.9,0.5,1.1,0.8c0.2,0.3,0.4,0.7,0.5,1.2c0.1,0.3,0.1,0.8,0.1,1.6v6h-1.6v-5.9
			c0-0.7-0.1-1.2-0.2-1.5c-0.1-0.3-0.3-0.6-0.7-0.8s-0.7-0.3-1.1-0.3c-0.7,0-1.3,0.2-1.8,0.7c-0.5,0.4-0.8,1.3-0.8,2.5v5.3H81z
			 M98,201.4l1.7,0.2c-0.3,1-0.8,1.8-1.5,2.3c-0.7,0.5-1.6,0.8-2.8,0.8c-1.4,0-2.5-0.4-3.4-1.3c-0.8-0.9-1.2-2.1-1.2-3.7
			c0-1.6,0.4-2.9,1.2-3.8c0.8-0.9,1.9-1.3,3.3-1.3c1.3,0,2.3,0.4,3.2,1.3c0.8,0.9,1.2,2.1,1.2,3.7c0,0.1,0,0.2,0,0.4h-7.2
			c0.1,1.1,0.4,1.9,0.9,2.5c0.5,0.6,1.2,0.8,2,0.8c0.6,0,1.1-0.2,1.5-0.5C97.4,202.6,97.8,202.1,98,201.4z M92.6,198.7H98
			c-0.1-0.8-0.3-1.4-0.6-1.8c-0.5-0.6-1.2-1-2-1c-0.8,0-1.4,0.3-1.9,0.8C93,197.2,92.7,197.9,92.6,198.7z"/>
		<path class="st1" d="M308.3,198.1h-18v-92.2"/>
		<path class="st2" d="M308.3,198.1h-18v-92.2"/>
		<path class="st1" d="M212.8,177.3L236,118"/>
		<path class="st4" d="M212.8,177.3l21-53.7"/>
		<path class="st5" d="M235.3,124.2l0.1-4.8l-3.2,3.6L235.3,124.2z"/>
		<path class="st1" d="M236.8,177.3L260,118"/>
		<path class="st4" d="M239,171.7l21-53.7"/>
		<path class="st5" d="M237.5,171.1l-0.1,4.8l3.2-3.6L237.5,171.1z"/>
		<path class="st1" d="M340.8,177.3L364,118"/>
		<path class="st4" d="M340.8,177.3l21-53.7"/>
		<path class="st5" d="M363.3,124.2l0.1-4.8l-3.2,3.6L363.3,124.2z"/>
		<path class="st1" d="M364.8,177.3L388,118"/>
		<path class="st4" d="M367,171.7l21-53.7"/>
		<path class="st5" d="M365.5,171.1l-0.1,4.8l3.2-3.6L365.5,171.1z"/>
		<path class="st1" d="M452.8,177.3L476,118"/>
		<path class="st4" d="M452.8,177.3l21-53.7"/>
		<path class="st5" d="M475.3,124.2l0.1-4.8l-3.2,3.6L475.3,124.2z"/>
		<path class="st1" d="M476.8,177.3L500,118"/>
		<path class="st4" d="M479,171.7l21-53.7"/>
		<path class="st5" d="M477.5,171.1l-0.1,4.8l3.2-3.6L477.5,171.1z"/>
		<path class="st1" d="M564.8,177.3L588,118"/>
		<path class="st4" d="M564.8,177.3l21-53.7"/>
		<path class="st5" d="M587.3,124.2l0.1-4.8l-3.2,3.6L587.3,124.2z"/>
		<path class="st1" d="M588.8,177.3L612,118"/>
		<path class="st4" d="M591,171.7l21-53.7"/>
		<path class="st5" d="M589.5,171.1l-0.1,4.8l3.2-3.6L589.5,171.1z"/>
	</g>
</g>
</svg>
